<svg xmlns="http://www.w3.org/2000/svg" x="0px" y="0px"
width="30" height="30"
viewBox="0 0 172 172"
style=" fill:#000000;"><g fill="none" fill-rule="nonzero" stroke="none" stroke-width="1" stroke-linecap="butt" stroke-linejoin="miter" stroke-miterlimit="10" stroke-dasharray="" stroke-dashoffset="0" font-family="none" font-weight="none" font-size="none" text-anchor="none" style="mix-blend-mode: normal"><path d="M0,172v-172h172v172z" fill="none"></path><path d="M17.2,172c-9.4993,0 -17.2,-7.7007 -17.2,-17.2v-137.6c0,-9.4993 7.7007,-17.2 17.2,-17.2h137.6c9.4993,0 17.2,7.7007 17.2,17.2v137.6c0,9.4993 -7.7007,17.2 -17.2,17.2z" fill="#ff05e4"></path><g fill="#ffffff"><path d="M70.94976,22.21667c-4.7472,0 -8.6,3.8528 -8.6,8.6v37.26667v28.66667v6.08047l-15.26276,-7.73776c-3.1992,-1.62253 -7.05576,-1.25005 -9.87656,0.96302c-4.3516,3.41707 -4.73878,9.8745 -0.82865,13.78464l27.73724,27.73724c3.22787,3.22787 7.60294,5.03906 12.16094,5.03906h37.66979c9.50013,0 17.2,-7.69987 17.2,-17.2v-39.02474c0,-5.60147 -4.05848,-10.38683 -9.58542,-11.30989l-42.01458,-6.9987v-37.26667c0,-4.7472 -3.8528,-8.6 -8.6,-8.6z"></path></g></g></svg>