<svg xmlns="http://www.w3.org/2000/svg" x="0px" y="0px"
width="30" height="30"
viewBox="0 0 172 172"
style=" fill:#000000;"><g fill="none" fill-rule="nonzero" stroke="none" stroke-width="1" stroke-linecap="butt" stroke-linejoin="miter" stroke-miterlimit="10" stroke-dasharray="" stroke-dashoffset="0" font-family="none" font-weight="none" font-size="none" text-anchor="none" style="mix-blend-mode: normal"><path d="M0,172v-172h172v172z" fill="none"></path><path d="M17.2,172c-9.4993,0 -17.2,-7.7007 -17.2,-17.2v-137.6c0,-9.4993 7.7007,-17.2 17.2,-17.2h137.6c9.4993,0 17.2,7.7007 17.2,17.2v137.6c0,9.4993 -7.7007,17.2 -17.2,17.2z" fill="#04c5ff"></path><g><path d="M49.75714,64.29524c-16.68031,0 -30.20238,13.52207 -30.20238,30.20238c0,16.68031 13.52207,30.20238 30.20238,30.20238c16.68031,0 30.20238,-13.52207 30.20238,-30.20238c0,-16.68031 -13.52207,-30.20238 -30.20238,-30.20238z" fill="#ffffff"></path><path d="M86,40.13333c-20.01638,0 -36.24286,16.22648 -36.24286,36.24286c0,20.01638 16.22648,36.24286 36.24286,36.24286c20.01638,0 36.24286,-16.22648 36.24286,-36.24286c0,-20.01638 -16.22648,-36.24286 -36.24286,-36.24286z" fill="#ffffff"></path><path d="M126.77321,73.35595c-14.17827,0 -25.67202,11.49376 -25.67202,25.67202c0,14.17827 11.49376,25.67202 25.67202,25.67202c14.17827,0 25.67202,-11.49376 25.67202,-25.67202c0,-14.17827 -11.49376,-25.67202 -25.67202,-25.67202z" fill="#ffffff"></path><path d="M49.75714,94.49762h75.50595v30.20238h-75.50595z" fill="#ffffff"></path><path d="M79.95952,79.39643h12.08095v30.20238h-12.08095z" fill="#009fff"></path><path d="M86,64.29524l-18.12143,21.14167h36.24286z" fill="#009fff"></path></g></g></svg>