<svg xmlns="http://www.w3.org/2000/svg" x="0px" y="0px"
width="30" height="30"
viewBox="0 0 172 172"
style=" fill:#000000;"><g fill="none" fill-rule="nonzero" stroke="none" stroke-width="1" stroke-linecap="butt" stroke-linejoin="miter" stroke-miterlimit="10" stroke-dasharray="" stroke-dashoffset="0" font-family="none" font-weight="none" font-size="none" text-anchor="none" style="mix-blend-mode: normal"><path d="M0,172v-172h172v172z" fill="none"></path><path d="M0,172v-172h172v172z" fill="#c335ff"></path><g fill="#ffffff"><path d="M86,22.93333c-0.77639,0.00147 -1.53894,0.20562 -2.21221,0.59225l-0.01742,-0.03484l-62.42963,35.67407l0.00871,0.04355c-1.38196,0.79372 -2.23528,2.26463 -2.23834,3.8583c0.00385,1.91917 1.23521,3.62062 3.05703,4.2241v0.00871l19.23927,7.9866v-8.75304c0,-2.98324 1.48772,-5.7661 3.97153,-7.42049c1.4448,-0.9632 14.88222,-9.42367 40.62106,-9.42367c25.73884,0 39.17626,8.45601 40.62106,9.42367c2.48381,1.65439 3.97153,4.43724 3.97153,7.42049v8.75304l8.91852,-3.70153v46.22998c-2.65609,1.5441 -4.45926,4.38662 -4.45926,7.68177c0,4.92748 8.91852,17.83704 8.91852,17.83704c0,0 8.91852,-12.90956 8.91852,-17.83704c0,-3.29515 -1.80317,-6.13767 -4.45926,-7.68177v-49.93151l1.40223,-0.58353v-0.00871c1.82183,-0.60349 3.05318,-2.30493 3.05703,-4.2241c-0.00305,-1.59368 -0.85638,-3.06458 -2.23834,-3.8583l0.00871,-0.04355l-62.42963,-35.67407l-0.01742,0.03484c-0.67327,-0.38663 -1.43582,-0.59078 -2.21221,-0.59225zM86,58.60741c-23.78123,0 -35.67407,7.92564 -35.67407,7.92564v9.9114v4.45926c-4.87425,0 -8.91852,4.04427 -8.91852,8.91852v4.45926c0,6.76321 2.96183,11.57871 5.98342,14.2226c1.69209,1.48058 2.29982,1.43396 3.53605,1.95093c0.51578,2.30046 1.78931,7.15629 5.72214,13.05553c4.94982,7.42472 14.21418,15.0765 28.67164,15.31999c0.22501,0.0318 0.45212,0.04636 0.67934,0.04355c0.20398,-0.00056 0.40768,-0.01511 0.60967,-0.04355c14.49872,-0.21917 23.7833,-7.88297 28.74132,-15.31999c3.93283,-5.89924 5.20635,-10.75507 5.72213,-13.05553c1.23624,-0.51697 1.84397,-0.47034 3.53605,-1.95093c3.02159,-2.64389 5.98342,-7.45939 5.98342,-14.2226v-4.45926c0,-4.87425 -4.04427,-8.91852 -8.91852,-8.91852v-4.45926v-9.9114c0,0 -11.89284,-7.92564 -35.67407,-7.92564zM86,78.92665c11.77146,0 20.60997,1.93977 26.55524,3.90185c0.12886,2.20968 0.20032,4.53799 0.20032,6.99372h8.91852v4.45926c0,4.38494 -1.49743,6.25833 -2.9351,7.51629c-1.43767,1.25796 -2.60414,1.53287 -2.60414,1.53287l-2.83929,0.71418l-0.47902,2.88284c0,0 -0.99759,5.80322 -4.88602,11.63588c-3.88844,5.83267 -10.03914,11.39202 -21.9305,11.39202c-11.89136,0 -18.04206,-5.55935 -21.9305,-11.39202c-3.88844,-5.83266 -4.88602,-11.63588 -4.88602,-11.63588l-0.47902,-2.88284l-2.83929,-0.71418c0,0 -1.16647,-0.27491 -2.60414,-1.53287c-1.43767,-1.25796 -2.9351,-3.13135 -2.9351,-7.51629v-4.45926h8.91852c0,-2.85343 0.38668,-5.19319 1.0103,-7.22888c5.93074,-1.87748 14.45381,-3.66669 25.74525,-3.66669z"></path></g><path d="M0,172v-172h172v172z" fill="none"></path><path d="M3.44,168.56v-165.12h165.12v165.12z" fill="none"></path></g></svg>