<svg xmlns="http://www.w3.org/2000/svg" x="0px" y="0px"
width="48" height="48"
viewBox="0 0 172 172"
style=" fill:#000000;"><g fill="none" fill-rule="nonzero" stroke="none" stroke-width="1" stroke-linecap="butt" stroke-linejoin="miter" stroke-miterlimit="10" stroke-dasharray="" stroke-dashoffset="0" font-family="none" font-weight="none" font-size="none" text-anchor="none" style="mix-blend-mode: normal"><path d="M0,172v-172h172v172z" fill="none"></path><path d="M0,172v-172h172v172z" fill="#f9c200"></path><g fill="#ffffff"><path d="M47.81538,19.93369c-8.17903,0 -14.835,6.65597 -14.835,14.835v102.19667c0,8.17903 6.65597,14.835 14.835,14.835h75.82333c8.17903,0 14.835,-6.65597 14.835,-14.835v-64.285h-37.91167c-8.17903,0 -14.835,-6.65597 -14.835,-14.835v-37.91167zM95.61705,22.82471v35.01421c0,2.72964 2.21866,4.95144 4.945,4.95144h35.01421zM69.49483,85.98936c2.00767,0 3.81976,1.21199 4.57799,3.07131l14.835,36.26333c1.03515,2.52854 -0.17905,5.41982 -2.7043,6.45168c-0.61648,0.25055 -1.25062,0.36701 -1.87369,0.36701c-1.94833,0 -3.79338,-1.16238 -4.57799,-3.07775l-1.43585,-3.51559h-17.64232l-1.43585,3.52202c-1.03186,2.53184 -3.92314,3.74605 -6.45168,2.7043c-2.52854,-1.03186 -3.73945,-3.92314 -2.7043,-6.45168l14.835,-36.26333c0.75823,-1.85932 2.57032,-3.07131 4.57799,-3.07131zM107.4065,89.29247c2.72964,0 4.945,2.21206 4.945,4.945v4.945h4.945c2.72964,0 4.945,2.21206 4.945,4.945c0,2.73294 -2.21536,4.945 -4.945,4.945h-4.945v4.945c0,2.73294 -2.21536,4.945 -4.945,4.945c-2.72964,0 -4.945,-2.21206 -4.945,-4.945v-4.945h-4.945c-2.72964,0 -4.945,-2.21206 -4.945,-4.945c0,-2.73294 2.21536,-4.945 4.945,-4.945h4.945v-4.945c0,-2.73294 2.21536,-4.945 4.945,-4.945zM69.49483,103.99225l-4.77115,11.66711h9.54231z"></path></g></g></svg>